<?xml version="1.0" standalone="no"?>
<!DOCTYPE svg PUBLIC "-//W3C//DTD SVG 20010904//EN"
 "http://www.w3.org/TR/2001/REC-SVG-20010904/DTD/svg10.dtd">
<svg version="1.0" xmlns="http://www.w3.org/2000/svg"
 width="1024.000000pt" height="1024.000000pt" viewBox="0 0 1024.000000 1024.000000"
 preserveAspectRatio="xMidYMid meet">
<metadata>
Created by potrace 1.14, written by Peter Selinger 2001-2017
</metadata>
<g transform="translate(0.000000,1024.000000) scale(0.100000,-0.100000)"
fill="#000000" stroke="none">
<path d="M1462 7118 c-9 -9 -12 -223 -12 -900 0 -867 0 -888 19 -898 12 -6
111 -10 253 -10 195 0 237 3 256 16 22 15 22 16 22 338 0 237 3 325 12 334 9
9 79 12 254 12 133 0 249 3 258 6 14 5 16 31 16 189 0 158 -2 184 -16 189 -9
3 -123 6 -254 6 -204 0 -241 2 -254 16 -13 12 -16 41 -16 148 0 116 2 135 18
149 17 15 59 17 405 17 337 0 388 2 401 16 13 13 16 44 16 188 0 120 -4 176
-12 184 -17 17 -1349 17 -1366 0z"/>
<path d="M3748 7120 c-17 -10 -18 -64 -18 -894 0 -843 1 -884 18 -899 17 -15
59 -17 398 -17 484 0 609 15 782 96 312 143 482 433 482 819 0 415 -202 714
-564 834 -177 58 -222 63 -671 67 -281 3 -416 1 -427 -6z m809 -404 c107 -34
192 -114 232 -220 61 -162 49 -441 -24 -586 -68 -134 -226 -215 -406 -208
l-74 3 -3 505 c-1 278 0 511 3 519 7 19 199 9 272 -13z"/>
<path d="M5632 7118 c-9 -9 -12 -221 -12 -894 0 -789 2 -884 16 -898 14 -14
91 -16 698 -16 573 0 685 2 702 14 18 13 19 28 19 191 0 145 -3 177 -15 185
-9 6 -187 10 -432 10 -402 0 -418 1 -428 19 -13 25 -13 261 0 281 8 12 53 16
267 20 l258 5 3 179 c2 123 -1 183 -9 192 -9 11 -60 14 -255 14 -295 0 -274
-12 -274 157 0 168 -42 153 433 153 369 0 395 1 410 18 14 16 17 44 17 188 0
119 -4 174 -12 182 -17 17 -1369 17 -1386 0z"/>
<path d="M7205 7107 c-14 -22 2 -73 276 -888 228 -676 297 -869 316 -886 24
-22 30 -23 253 -23 152 0 238 4 254 12 18 7 32 29 47 67 40 106 569 1684 569
1697 0 7 -7 20 -16 28 -13 14 -47 16 -220 16 -184 0 -206 -2 -222 -18 -12 -12
-74 -214 -172 -560 -84 -298 -157 -547 -161 -554 -4 -7 -10 -10 -13 -7 -3 3
-81 254 -175 559 -115 377 -175 558 -187 567 -14 10 -79 13 -276 13 l-258 0
-15 -23z"/>
<path d="M3000 5781 c-6 -12 -10 -104 -10 -229 0 -190 2 -210 18 -225 16 -15
48 -17 238 -17 174 0 224 3 240 14 18 13 19 30 22 225 2 138 -1 217 -8 231
-10 19 -19 20 -250 20 -226 0 -240 -1 -250 -19z"/>
</g>
</svg>
